<svg id="Layer_1" data-name="Layer 1" xmlns="http://www.w3.org/2000/svg" viewBox="0 0 225.01 155.32"><defs><style>.cls-1{fill:#cd2128;}.cls-2{fill:#313840;}</style></defs><path class="cls-1" d="M222.08,11.4c-1-5.11-5.85-8.46-6.14-8.66C211-.62,205.19,0,203.7.12H0C9.62,14.07,17.88,25.47,24.05,33.87A25.57,25.57,0,0,0,34,42.54a24,24,0,0,0,11.23,2c9.81-.35,48.76-.3,102.51-.29L104.1,102.34c13.89.9,27.35.67,40.81,1,5.31.13,8.7-1.53,12.07-5.75,17.94-22.4,36.25-44.51,54.42-66.72C215.67,25.67,223.59,18.89,222.08,11.4Z"/><path class="cls-2" d="M225,155.1c-1.32-1.84-14-19.44-24.6-33a24.44,24.44,0,0,0-7.73-6.84,25.71,25.71,0,0,0-13.7-2.78c-44.07,1.84-100.32.19-101.13.15s-1.39-.09-1.39-.09l-1.92-.22Q86.95,98.56,99.63,83.6q12.9-15.27,24.54-30.07H121c-10.53-.07-26.93-.79-39.46-.92a16.55,16.55,0,0,0-13.7,6.62c-12.89,16-26.1,31.66-39.15,47.49C20.21,117,11.81,127.3,3.36,137.58a12.49,12.49,0,0,0-1.95,13.11,6.5,6.5,0,0,0,1.75,2.59,9.5,9.5,0,0,0,6.26,2h0Z"/></svg>