<svg id="Layer_1" data-name="Layer 1" xmlns="http://www.w3.org/2000/svg" viewBox="0 0 961.11 165.44"><defs><style>.cls-1{fill:#cd2128;}.cls-2{fill:#313840;}</style></defs><path class="cls-1" d="M222.08,11.4c-1-5.11-5.85-8.46-6.14-8.66C211-.62,205.19,0,203.7.12H0C9.62,14.07,17.88,25.47,24.05,33.87A25.57,25.57,0,0,0,34,42.54a24,24,0,0,0,11.23,2c9.81-.35,48.76-.3,102.51-.29L104.1,102.34c13.89.9,27.35.67,40.81,1,5.31.13,8.7-1.53,12.07-5.75,17.94-22.4,36.25-44.51,54.42-66.72C215.67,25.67,223.59,18.89,222.08,11.4Z"/><path class="cls-2" d="M674.33,131.91H653V60.06h19.78c.3,2.57.58,5,.88,7.59,17.17-13.12,30.84-12.91,42.71.55,8.7-8.74,19.16-11.85,31.18-9.24,9.55,2.06,16.23,9.29,16.88,21.32.93,17.07.24,34.23.24,51.59h-21.5c0-1.91,0-3.77,0-5.63-.15-13-.15-26-.51-39-.18-6.37-2.94-9.61-7.87-10.5a11.33,11.33,0,0,0-13.08,7.37,39.81,39.81,0,0,0-1.93,11.74c-.24,11.85-.09,23.71-.09,35.9H697.44V121.34c0-10.91.07-21.83,0-32.74-.07-7-3-10.94-8.27-11.75C683,75.91,677.85,79,676,85.43a40.94,40.94,0,0,0-1.55,10.86C674.21,108,674.33,119.69,674.33,131.91Z"/><path class="cls-1" d="M264.17,131.79c-1.5-9.59.18-17.69,6.25-25.45,14.22-18.18,27.72-36.93,41.51-55.46.73-1,1.38-2,2.54-3.74-2.4-.14-4.07-.31-5.74-.32-13,0-26-.15-39,0-3.51,0-4.88-.89-4.66-4.6.31-5.08.08-10.19.08-15.6h79.59c.42,9.4.8,18.18-5.58,26.44-14,18.14-27.24,36.87-40.78,55.36-.82,1.12-1.5,2.33-2.68,4.17h49.05v19.2Z"/><path class="cls-1" d="M451.83,126.38v39.06H430.16V60.24H449.6c.43,2.2.9,4.64,1.24,6.36,5-2.55,9.91-6.26,15.37-7.55,20.41-4.83,37.89,8,40.58,28.84,1.84,14.26-.5,27.24-11,37.69s-28.43,11.71-40.69,3C454.29,128.06,453.51,127.53,451.83,126.38Zm33.62-30.09c0-1.28.08-2.56,0-3.84-1.05-13-14.27-20.36-25.17-13.84-7,4.17-8.74,10.94-8.57,18.59.16,7.22,2.57,13.18,9.11,16.8a14.47,14.47,0,0,0,5.91,1.64C478.65,116.41,485.5,109.27,485.45,96.29Z"/><path class="cls-1" d="M604.13,134.23c-23-.08-38.89-15.83-38.83-38.54.05-22.19,16.2-37.76,39.17-37.74,22.56,0,39,16.26,38.74,38.28C642.94,118.47,626.65,134.31,604.13,134.23Zm17.14-37.65c0-9.59-4.17-16.79-11.34-19.37-12.36-4.44-24.54,6.53-22.93,20.64,1.24,10.8,7,17.49,15.43,17.86C613.94,116.22,621.2,108.84,621.27,96.58Z"/><path class="cls-1" d="M396.49,87.72c-.74-8.49-4.49-12.7-12.21-12.29-7.55.4-15,2.14-23.38,3.43-.7-1.28-2.11-3.75-3.41-6.28-2.81-5.46-2.69-5.63,3-8.47A55.47,55.47,0,0,1,395,58.84c12.71,2,21.17,9.39,22,22.43,1.08,16.72.27,33.56.27,50.61H398.13c-.47-1.9-.94-3.87-1.56-6.4-8.89,9.06-19.54,10.27-30.83,7.58-9.4-2.24-15.05-9.25-16-18.77s3-18.08,11.66-21.77c5.9-2.51,12.49-3.74,18.9-4.65C385.47,87.13,390.83,87.72,396.49,87.72Zm-.17,13c-6.84.53-13.52.58-20,1.73-3.94.7-5.7,4.24-5.59,8.43.1,3.86,2,6.6,5.56,7.49C387.56,121.17,398.54,116.1,396.32,100.7Z"/><path class="cls-2" d="M841.83,131.9h-19.9c-.18-2.16-.35-4.14-.59-6.92-1.7,1.45-2.87,2.41-4,3.41-8.84,7.79-27.35,7.91-36.26.23-11.77-10.14-8.88-30.59,5.64-36.8,5.44-2.33,11.64-3.22,17.59-4,5.2-.64,10.54-.13,15.78-.13,1.21-7.07-3.15-12.54-10.9-12.28s-15.33,2-24.15,3.24l-5.83-10.76c5.62-5.19,12.55-7.17,19.53-8.8a49.09,49.09,0,0,1,24.69.8c11,3.08,17.56,10.8,18.16,21.71C842.51,98.23,841.83,114.91,841.83,131.9Zm-21.39-30.65c-5.69,0-11.13-.25-16.54.07s-9,4.22-9.11,8.81q-.18,7.56,8.86,8.62C814.42,120,822.62,114.44,820.44,101.25Z"/><path class="cls-2" d="M960.1,115.42c.34,4.92.84,9.53.85,14.13a4.28,4.28,0,0,1-2.61,3.07c-8,2-16.2,2.61-24.17-.07-8.33-2.8-12-9.31-12.27-17.7-.31-10.42-.15-20.85-.19-31.28,0-1.9,0-3.8,0-6.31H908.94V60h12.78c0-5,.13-9.55-.06-14.11-.11-2.72.84-4,3.5-4.74,5.8-1.57,11.51-3.45,18-5.44V59.69h17.93V77.07H943.67c0,11.26-.37,22.1.17,32.9.25,4.9,4.09,6.8,9.57,6.23C955.61,116,957.79,115.69,960.1,115.42Z"/><path class="cls-1" d="M543.54,77.12c0,10.64-.27,20.43.09,30.18.25,7,3.82,9.58,10.84,8.8l5.88-.71c.35,4.82.86,9.43.89,14a4.3,4.3,0,0,1-2.5,3.18c-8.2,2.09-16.48,2.63-24.61-.32-7.68-2.79-11.93-9.43-12.06-19-.15-10.27-.05-20.54-.05-30.82V77.35H509.86V59.93H522c0-4.88.2-9.32-.07-13.73-.19-3,1-4.34,3.72-5.1,5.66-1.58,11.26-3.36,17.68-5.3V59.64h18V77.12Z"/><path class="cls-2" d="M875.7,131.93H854.59V60.11h19.16c.44,2.93.89,6,1.46,9.86,6.92-9.81,15.73-13.44,26.88-11V79.45c-3.44-.18-6.28-.42-9.13-.45-9.89-.12-15.2,3.93-16.3,13.71-.91,8.09-.74,16.3-.94,24.46C875.61,122,875.7,126.73,875.7,131.93Z"/><path class="cls-2" d="M225,155.1c-1.32-1.84-14-19.44-24.6-33a24.44,24.44,0,0,0-7.73-6.84,25.71,25.71,0,0,0-13.7-2.78c-44.07,1.84-100.32.19-101.13.15s-1.39-.09-1.39-.09l-1.92-.22Q86.95,98.56,99.63,83.6q12.9-15.27,24.54-30.07H121c-10.53-.07-26.93-.79-39.46-.92a16.55,16.55,0,0,0-13.7,6.62c-12.89,16-26.1,31.66-39.15,47.49C20.21,117,11.81,127.3,3.36,137.58a12.49,12.49,0,0,0-1.95,13.11,6.5,6.5,0,0,0,1.75,2.59,9.5,9.5,0,0,0,6.26,2h0Z"/></svg>